<svg width="36" height="34" viewBox="0 0 36 34" xmlns="http://www.w3.org/2000/svg">
<path d="M33 0L30.1871 30.6942L17.9998 34L5.81235 30.6942L3 0H33ZM27.3318 6.24119H17.9888H8.48038L8.93512 9.9478H17.9888H18.4974L17.9888 10.161L9.26601 13.821L9.5553 17.4441L17.9888 17.4716L22.509 17.486L22.2196 22.317L17.9888 23.517V23.5132L17.9541 23.5229L13.8682 22.4838L13.6202 19.485H13.6067H9.81678H9.80343L10.2995 25.2741L17.9889 27.5649V27.5608L18.0028 27.5649L25.6509 25.3159L26.643 13.821H17.9889H17.9676L17.9889 13.8116L26.9601 9.9478L27.3318 6.24119Z" fill="#E5E5E5"/>
</svg>
