<svg width="80" height="80" viewBox="0 0 80 80" xmlns="http://www.w3.org/2000/svg">
<path d="M66.1333 24.2165L40 43.4498L13.8667 24.2165M10.7833 17.8498C9.89929 17.8498 9.05144 18.201 8.42632 18.8261C7.8012 19.4512 7.45001 20.2991 7.45001 21.1831V58.8665C7.45001 59.7505 7.8012 60.5984 8.42632 61.2235C9.05144 61.8486 9.89929 62.1998 10.7833 62.1998H69.2167C70.1007 62.1998 70.9486 61.8486 71.5737 61.2235C72.1988 60.5984 72.55 59.7505 72.55 58.8665V21.1331C72.55 20.2491 72.1988 19.4012 71.5737 18.7761C70.9486 18.151 70.1007 17.7998 69.2167 17.7998H10.7833V17.8498Z" stroke="#E5E5E5"/>
</svg>
