<svg width="30" height="30" viewBox="0 0 30 30" fill="none" xmlns="http://www.w3.org/2000/svg">
<path d="M14.9999 10.8333H10.8332M14.9999 10.8333V2.5H10.8332C8.53205 2.5 6.66656 4.36548 6.66656 6.66666C6.66656 8.96785 8.53204 10.8333 10.8332 10.8333M14.9999 10.8333V19.1666H10.8332M14.9999 10.8333H19.1666M10.8332 10.8333C8.53204 10.8333 6.66656 12.6989 6.66656 15C6.66656 17.3011 8.53204 19.1666 10.8332 19.1666M10.8332 19.1666C8.53205 19.1666 6.66656 21.0321 6.66656 23.3334C6.66656 25.6345 8.53205 27.5 10.8332 27.5C13.1344 27.5 14.9999 25.6345 14.9999 23.3334M19.1666 10.8333C16.8654 10.8333 14.9999 12.6989 14.9999 15C14.9999 17.3011 16.8654 19.1666 19.1666 19.1666C21.4677 19.1666 23.3333 17.3011 23.3333 15C23.3333 12.6989 21.4677 10.8333 19.1666 10.8333ZM19.1666 10.8333C21.4677 10.8333 23.3333 8.96785 23.3333 6.66666C23.3333 4.36548 21.4677 2.5 19.1666 2.5" stroke="#E5E5E5" stroke-width="2" stroke-linecap="round" stroke-linejoin="round"/>
</svg>
