<svg width="30" height="34" viewBox="0 0 30 34" xmlns="http://www.w3.org/2000/svg">
<path d="M16.7677 7.12596C15.7915 6.18219 14.2085 6.18219 13.2322 7.12596L12.3928 7.93744L14.3525 9.83179C14.559 9.77841 14.776 9.74994 15 9.74994C16.3807 9.74994 17.5 10.8319 17.5 12.1666C17.5 12.3831 17.4705 12.5929 17.4154 12.7926L19.9775 15.2692C20.184 15.216 20.401 15.1874 20.625 15.1874C22.0057 15.1874 23.125 16.2694 23.125 17.6041C23.125 18.9388 22.0057 20.0208 20.625 20.0208C19.2442 20.0208 18.125 18.9388 18.125 17.6041C18.125 17.3876 18.1545 17.1778 18.2096 16.9782L16.25 15.0838V20.9483C16.9972 21.3661 17.5 22.1471 17.5 23.0416C17.5 24.3763 16.3807 25.4583 15 25.4583C13.6192 25.4583 12.5 24.3763 12.5 23.0416C12.5 22.1471 13.0027 21.3661 13.75 20.9483V14.26C13.0027 13.8421 12.5 13.0611 12.5 12.1666C12.5 11.9501 12.5295 11.7403 12.5846 11.5406L10.625 9.64628L4.78553 15.2911C3.80922 16.2348 3.80922 17.7651 4.78553 18.7088L13.2322 26.874C14.2085 27.8177 15.7915 27.8177 16.7677 26.874L25.2145 18.7088C26.1907 17.7651 26.1907 16.2348 25.2145 15.2911L16.7677 7.12596ZM11.4645 5.41711C13.4171 3.52958 16.5829 3.52958 18.5355 5.41712L26.9822 13.5823C28.9349 15.4698 28.9349 18.5301 26.9822 20.4176L18.5355 28.5828C16.5829 30.4703 13.4171 30.4703 11.4645 28.5828L3.01776 20.4176C1.06514 18.5301 1.06515 15.4698 3.01777 13.5823L11.4645 5.41711Z" fill="#E5E5E5"/>
</svg>
