<svg width="30" height="30" viewBox="0 0 30 30" fill="none" xmlns="http://www.w3.org/2000/svg">
<g clip-path="url(#clip0_86_48)">
<path fill-rule="evenodd" clip-rule="evenodd" d="M0.0590864 0C0.025688 0.00486328 0.0281489 0.0451172 0.0305513 0.0854297C0.0305513 10.0269 0.0305513 19.9669 0.0305513 29.9081C9.95422 29.9746 19.9998 29.9176 29.9707 29.9366C29.9707 19.9576 29.9707 9.97898 29.9707 0C20.0005 0 10.0293 0 0.0590864 0ZM15.2281 26.4649C14.5354 27.1632 13.4423 27.5745 12.0975 27.5745C9.89188 27.5745 8.66727 26.4999 7.88557 25.0133C8.63803 24.5329 9.40702 24.0687 10.1909 23.6191C10.5106 24.5133 11.5905 25.5187 12.809 24.8998C13.5815 24.5072 13.4923 23.3171 13.4923 22.0255C13.4923 19.3435 13.4923 16.2495 13.4923 13.8299C13.4898 13.7896 13.4874 13.7493 13.5205 13.7445C14.4409 13.7445 15.3611 13.7445 16.2812 13.7445C16.2812 15.9 16.2812 18.3383 16.2812 20.6309C16.2812 23.1269 16.4596 25.2239 15.2281 26.4649ZM27.5799 23.9893C27.4232 26.3262 25.5148 27.5672 22.941 27.5745C20.4178 27.5818 18.8029 26.4605 17.818 24.7288C18.5261 24.2415 19.3284 23.8489 20.0665 23.3916C20.6571 24.3151 21.68 25.2027 23.1971 25.0704C24.1423 24.988 25.2395 24.2176 24.6201 23.05C24.3197 22.4839 23.5937 22.1964 22.941 21.9118C20.8696 21.008 18.4394 20.1791 18.6718 16.9318C18.7496 15.847 19.2491 15.0846 19.8958 14.5414C20.5585 13.9847 21.4462 13.6117 22.6279 13.5739C24.7742 13.5052 25.9515 14.4599 26.7546 15.7937C26.0712 16.3147 25.3183 16.7668 24.5632 17.2164C24.3154 16.455 23.1192 15.713 22.1156 16.1636C21.6592 16.3682 21.2491 16.9699 21.4896 17.7001C21.704 18.3514 22.5788 18.7079 23.2825 19.0093C25.4125 19.9211 27.7929 20.8121 27.5799 23.9893Z" fill="#E5E5E5"/>
</g>
<defs>
<clipPath id="clip0_86_48">
<rect width="30" height="29.9414" fill="white"/>
</clipPath>
</defs>
</svg>
