<svg width="80" height="80" viewBox="0 0 80 80" fill="none" xmlns="http://www.w3.org/2000/svg">
<g clip-path="url(#clip0_86_289)">
<path d="M211.999 6.09326C232.964 6.09326 248.133 20.9324 248.133 41.5581C248.133 62.1823 232.906 76.9614 211.999 76.9614C191.154 76.9614 175.984 62.1226 175.984 41.4956C175.984 20.8699 191.153 6.09328 211.999 6.09326ZM292.724 7.27197C299.899 7.27197 305.64 9.60546 309.584 13.4858C313.529 17.3666 315.717 22.8326 315.717 29.1724C315.717 41.1757 308.114 47.5774 300.759 49.3052L300.094 49.4614L300.445 50.0483L315.786 75.7192H299.89L286.294 51.27L286.151 51.0132H274.414V75.7085H260.489V7.27197H292.724ZM70.6195 7.27979L43.4926 39.0386L43.224 39.354L43.4838 39.6772L72.5072 75.7192H55.4174L34.3949 48.1255L34.0179 47.6304L33.6156 48.105L28.1449 54.564L28.0267 54.7036V75.7124H14.1V56.4819L53.5092 7.27979H70.6195ZM343.551 7.22021V39.2524L344.443 38.1343L369.032 7.27979H386.117L358.991 39.0386L358.721 39.355L358.982 39.6772L388.015 75.6606H370.943L349.92 48.0659L349.543 47.5708L349.141 48.0454L343.67 54.5044L343.551 54.645V75.6567H329.625V7.22021H343.551ZM93.2006 7.22021L105.417 57.0239L106.386 57.0327L119.64 7.22021H130.528L143.629 57.0278L144.599 57.019L156.664 7.22021H172.379L152.761 75.6567H137.543L125.388 28.3384L124.419 28.3394L112.357 75.6567H97.3021L77.5482 7.22021H93.2006ZM211.999 18.1929C205.413 18.1929 199.983 20.6918 196.203 24.8755C192.429 29.0541 190.328 34.8815 190.328 41.5024C190.328 48.0653 192.429 53.8928 196.203 58.0854C199.981 62.2832 205.411 64.813 211.999 64.813C218.589 64.813 224.049 62.2838 227.857 58.0874C231.661 53.8954 233.793 48.0672 233.793 41.5024C233.793 34.8607 231.661 29.0323 227.855 24.8589C224.045 20.681 218.585 18.1929 211.999 18.1929ZM274.356 38.9839H291.142L291.134 38.9556C293.971 38.8403 296.486 37.9523 298.33 36.3706C300.197 34.7704 301.345 32.488 301.455 29.6772L301.464 29.1079C301.463 26.0717 300.291 23.5939 298.312 21.8813C296.339 20.1742 293.598 19.2563 290.497 19.2563H274.356V38.9839Z" stroke="#E5E5E5"/>
<path d="M28.0303 6.91748V20.9917L14.0996 37.856V14.9263H7.5V6.91748H28.0303Z" stroke="#E5E5E5"/>
</g>
<defs>
<clipPath id="clip0_86_289">
<rect width="66" height="80" fill="white" transform="translate(7)"/>
</clipPath>
</defs>
</svg>
