<svg width="30" height="30" viewBox="0 0 30 30" xmlns="http://www.w3.org/2000/svg">
<path d="M23.4993 13.1251C23.7169 13.3662 23.7685 13.7802 23.6547 14.3667C23.5358 14.9775 23.307 15.4133 22.9678 15.6745C22.6284 15.9357 22.1122 16.0663 21.4191 16.0663H20.3732L21.0152 12.7634H22.1931C22.8465 12.7634 23.2816 12.884 23.4993 13.1251ZM8.77465 12.7634H7.59674L6.95467 16.0663H8.00045C8.69344 16.0663 9.20977 15.9357 9.5492 15.6745C9.8884 15.4133 10.1172 14.9774 10.2361 14.3667C10.3499 13.7801 10.2982 13.3662 10.0806 13.1251C9.86309 12.884 9.42791 12.7634 8.77465 12.7634ZM29.9707 15.0001C29.9707 19.3494 23.268 22.8752 15 22.8752C6.73201 22.8752 0.0292969 19.3494 0.0292969 15.0001C0.0292969 10.6508 6.73201 7.12488 15 7.12488C23.268 7.12488 29.9707 10.6508 29.9707 15.0001ZM11.6333 15.5442C11.8114 15.2249 11.9382 14.8726 12.0132 14.4873C12.1949 13.5517 12.0578 12.8231 11.6016 12.301C11.1457 11.7789 10.4201 11.518 9.42568 11.518H6.11965L4.58584 19.4099H6.3051L6.71279 17.3119H8.18549C8.83512 17.3119 9.36967 17.2437 9.78932 17.107C10.2089 16.9706 10.5902 16.7418 10.9335 16.4204C11.2215 16.1555 11.4547 15.8636 11.6333 15.5442ZM17.6844 17.3119L18.3981 13.6392C18.5434 12.8923 18.4344 12.3518 18.0717 12.0182C17.7086 11.6849 17.0493 11.518 16.0931 11.518H14.5736L14.9814 9.41976H13.2758L11.7417 17.3119H13.4473L14.326 12.7905H15.6893C16.1257 12.7905 16.411 12.8627 16.545 13.0072C16.679 13.1517 16.7075 13.4227 16.6303 13.8198L15.9517 17.3119H17.6844V17.3119ZM25.0202 12.301C24.5643 11.779 23.8387 11.5181 22.8443 11.5181H19.5382L18.0043 19.4099H19.7237L20.1313 17.312H21.604C22.2536 17.312 22.7882 17.2438 23.2078 17.1071C23.6274 16.9706 24.0087 16.7419 24.352 16.4204C24.6403 16.1555 24.8733 15.8637 25.0518 15.5442C25.2302 15.225 25.3566 14.8727 25.4317 14.4874C25.6135 13.5517 25.4763 12.8231 25.0202 12.301Z" fill="#E5E5E5"/>
</svg>
