<svg width="48" height="38" viewBox="0 0 48 38" fill="none" xmlns="http://www.w3.org/2000/svg">
<path d="M19.84 -1.97601L12.416 26.44L10.368 16.84C13.3547 16.84 15.8293 17.7787 17.792 19.656C19.7547 21.5333 20.736 24.0507 20.736 27.208C20.736 30.3653 19.7547 32.9253 17.792 34.888C15.8293 36.7653 13.3973 37.704 10.496 37.704C7.42401 37.704 4.90667 36.7227 2.94401 34.76C0.981339 32.7973 5.24521e-06 30.28 5.24521e-06 27.208C5.24521e-06 26.184 0.0426718 25.2453 0.128005 24.392C0.298672 23.4533 0.597338 22.344 1.024 21.064C1.45067 19.784 2.04801 18.1627 2.81601 16.2L9.60001 -1.97601H19.84ZM46.976 -1.97601L39.552 26.44L37.504 16.84C40.4907 16.84 42.9653 17.7787 44.928 19.656C46.8907 21.5333 47.872 24.0507 47.872 27.208C47.872 30.3653 46.8907 32.9253 44.928 34.888C42.9653 36.7653 40.5333 37.704 37.632 37.704C34.56 37.704 32.0427 36.7227 30.08 34.76C28.1173 32.7973 27.136 30.28 27.136 27.208C27.136 26.184 27.1787 25.2453 27.264 24.392C27.4347 23.4533 27.7333 22.344 28.16 21.064C28.5867 19.784 29.184 18.1627 29.952 16.2L36.736 -1.97601H46.976Z" fill="#39FF14"/>
</svg>
