<svg width="80" height="80" viewBox="0 0 80 80" fill="none" xmlns="http://www.w3.org/2000/svg">
<path d="M68.05 14.1333C69.95 14.1333 71.3833 15.8 70.6167 18.9L61.3167 62.7333C60.6667 65.85 58.7833 66.6 56.1833 65.15L34 48.7666C33.914 48.7049 33.8439 48.6236 33.7955 48.5294C33.7472 48.4352 33.722 48.3308 33.722 48.225C33.722 48.1191 33.7472 48.0147 33.7955 47.9205C33.8439 47.8263 33.914 47.745 34 47.6833L59.6167 24.55C60.7833 23.5166 59.3667 23.0166 57.8333 23.95L25.6833 44.2333C25.5858 44.2969 25.4751 44.3374 25.3596 44.3519C25.2441 44.3663 25.1268 44.3543 25.0167 44.3166L11.3667 40C8.33334 39.1166 8.33334 37.0333 12.05 35.55L66.6667 14.4833C67.0998 14.2755 67.5702 14.1565 68.05 14.1333Z" stroke="#E5E5E5" stroke-linecap="round" stroke-linejoin="round"/>
</svg>
