<svg width="30" height="30" viewBox="0 0 30 30" fill="none" xmlns="http://www.w3.org/2000/svg">
<g clip-path="url(#clip0_86_61)">
<g opacity="0.3">
<path d="M13.5 24.0241H15.6774V13.2822L13.5 12.5564V24.0241Z" fill="#E5E5E5"/>
<path d="M19.8871 8.54035C19.8629 9.99198 19.4033 10.742 18.4355 10.742C17.4436 10.742 16.4274 10.2097 15.0726 9.55648C13.2339 8.68554 12.3629 8.4436 11.2258 8.4436C9.36294 8.4436 7.91131 9.99198 8.00806 12.6533H9.62906C9.65325 10.9597 10.2581 10.2097 11.2258 10.2097C12.1936 10.2097 13.2097 10.7178 14.4678 11.3469C16.3306 12.1936 17.2984 12.5807 18.3871 12.5807C20.0564 12.5807 21.6049 11.6855 21.4839 8.54035H19.8871Z" fill="#E5E5E5"/>
<path fill-rule="evenodd" clip-rule="evenodd" d="M0 14.9758C0 6.72581 6.72581 0 14.9758 0C23.25 0 29.9516 6.72581 29.9516 14.9758C29.9516 23.2258 23.2258 29.9516 14.9758 29.9516C6.72581 29.9516 0 23.2258 0 14.9758ZM0.967744 14.9758C0.967744 22.7178 7.25806 28.9839 14.9758 28.9839C22.6936 28.9839 28.9839 22.6936 28.9839 14.9758C28.9839 7.25806 22.6936 0.967744 14.9758 0.967744C7.25806 0.967744 0.967744 7.23387 0.967744 14.9758Z" fill="#E5E5E5"/>
</g>
</g>
<defs>
<clipPath id="clip0_86_61">
<rect width="30" height="30" fill="white"/>
</clipPath>
</defs>
</svg>
