<svg width="30" height="30" viewBox="0 0 30 30" fill="none" xmlns="http://www.w3.org/2000/svg">
<g clip-path="url(#clip0_86_55)">
<path d="M0.0300293 14.9992C0.0300293 20.9246 3.473 26.046 8.46788 28.4722L1.32683 8.90719C0.496377 10.7683 0.0300293 12.8297 0.0300293 14.9992ZM25.106 14.2442C25.106 12.3933 24.4415 11.1126 23.872 10.1163C23.1133 8.88234 22.402 7.8385 22.402 6.60533C22.402 5.22885 23.4451 3.94816 24.9151 3.94816C24.9824 3.94816 25.0453 3.95619 25.1089 3.95982C22.4466 1.5198 18.8977 0.0292969 15 0.0292969C9.76972 0.0292969 5.16888 2.71277 2.49196 6.77631C2.84358 6.78803 3.1747 6.79535 3.45542 6.79535C5.02122 6.79535 7.44589 6.60527 7.44589 6.60527C8.25214 6.55705 8.34794 7.7427 7.54163 7.83844C7.54163 7.83844 6.73022 7.93348 5.82817 7.98023L11.2799 24.1959L14.5554 14.3706L12.2236 7.98023C11.4166 7.93348 10.6534 7.83844 10.6534 7.83844C9.84706 7.79016 9.9414 6.55699 10.7484 6.60527C10.7484 6.60527 13.2199 6.79535 14.6914 6.79535C16.2564 6.79535 18.6811 6.60527 18.6811 6.60527C19.4881 6.55705 19.5832 7.7427 18.7762 7.83844C18.7762 7.83844 17.9641 7.93348 17.0635 7.98023L22.4735 24.0723L23.9669 19.084C24.7258 17.1381 25.106 15.5248 25.106 14.2442ZM15.2631 16.3085L10.7712 29.3611C12.1126 29.755 13.5314 29.9707 15 29.9707C16.7442 29.9707 18.4159 29.6695 19.9715 29.122C19.932 29.0577 19.8947 28.9897 19.8648 28.9152L15.2631 16.3085ZM28.1366 7.81799C28.201 8.29459 28.2375 8.80629 28.2375 9.35672C28.2375 10.8757 27.9524 12.5841 27.0993 14.7186L22.527 27.9386C26.9773 25.3435 29.9699 20.5226 29.9699 14.9992C29.9699 12.3969 29.3048 9.94957 28.1366 7.81799Z" fill="#E5E5E5"/>
</g>
<defs>
<clipPath id="clip0_86_55">
<rect width="30" height="30" fill="white"/>
</clipPath>
</defs>
</svg>
